<svg width="300" height="127" viewBox="0 0 300 127" fill="none" xmlns="http://www.w3.org/2000/svg">
<path d="M296.897 43.0191C298.236 45.3542 299.158 47.7445 299.63 50.1792L299.139 50.2745C299.379 51.5058 299.5 52.748 299.5 54C299.5 55.252 299.379 56.4942 299.139 57.7255L299.63 57.8208C299.158 60.2556 298.236 62.6458 296.897 64.9809L296.463 64.732C295.284 66.7859 293.772 68.8027 291.944 70.7742L292.31 71.1143C290.666 72.8874 288.772 74.6196 286.646 76.3054L286.335 75.9136C284.44 77.4157 282.356 78.8825 280.093 80.3098L280.359 80.7328C278.278 82.0453 276.048 83.3233 273.678 84.5639L273.446 84.121C271.266 85.2623 268.965 86.3724 266.55 87.4487L266.753 87.9054C264.483 88.9173 262.114 89.899 259.65 90.8487L259.47 90.3822C257.147 91.2775 254.74 92.1445 252.253 92.9815L252.413 93.4553C250.034 94.2559 247.583 95.0289 245.063 95.773L244.921 95.2935C242.522 96.0019 240.06 96.6842 237.539 97.3389L237.665 97.8229C235.227 98.4559 232.735 99.0631 230.191 99.6436L230.08 99.1562C227.622 99.717 225.115 100.253 222.563 100.763L222.661 101.253C220.179 101.749 217.654 102.22 215.088 102.665L215.002 102.173C212.515 102.605 209.989 103.012 207.427 103.396L207.501 103.89C204.997 104.265 202.457 104.615 199.886 104.942L199.823 104.446C197.31 104.765 194.767 105.06 192.195 105.331L192.247 105.829C189.722 106.095 187.168 106.338 184.59 106.557L184.547 106.059C182.018 106.274 179.463 106.466 176.886 106.634L176.919 107.133C174.38 107.298 171.819 107.441 169.238 107.56L169.215 107.061C166.674 107.178 164.114 107.272 161.536 107.342L161.55 107.842C159.003 107.912 156.439 107.959 153.858 107.982L153.853 107.483C152.573 107.494 151.288 107.5 150 107.5C148.712 107.5 147.427 107.494 146.147 107.483L146.142 107.982C143.561 107.959 140.997 107.912 138.45 107.842L138.464 107.342C135.886 107.272 133.326 107.178 130.785 107.061L130.762 107.56C128.181 107.441 125.62 107.298 123.081 107.133L123.114 106.634C120.537 106.466 117.982 106.274 115.453 106.059L115.41 106.557C112.832 106.338 110.278 106.095 107.753 105.829L107.805 105.331C105.233 105.06 102.69 104.765 100.177 104.446L100.114 104.942C97.5427 104.615 95.0035 104.265 92.4986 103.89L92.5725 103.396C90.0108 103.012 87.4852 102.605 84.9979 102.173L84.9123 102.665C82.3465 102.22 79.8212 101.749 77.3391 101.253L77.4371 100.763C74.8846 100.253 72.378 99.717 69.9201 99.1562L69.8089 99.6436C67.2648 99.0631 64.7726 98.4559 62.3353 97.8229L62.461 97.3389C59.9399 96.6842 57.478 96.0019 55.0787 95.2935L54.9371 95.773C52.4173 95.0289 49.9659 94.2559 47.5871 93.4553L47.7466 92.9815C45.2596 92.1445 42.8526 91.2775 40.53 90.3822L40.3502 90.8487C37.8865 89.899 35.5168 88.9173 33.2466 87.9054L33.4502 87.4487C31.0353 86.3724 28.7345 85.2623 26.5539 84.1209L26.3221 84.5639C23.9519 83.3233 21.7221 82.0453 19.6408 80.7328L19.9075 80.3098C17.6441 78.8825 15.5599 77.4157 13.6649 75.9136L13.3543 76.3054C11.2275 74.6196 9.33436 72.8874 7.68977 71.1143L8.05636 70.7742C6.22774 68.8027 4.71562 66.7859 3.53711 64.732L3.10344 64.9809C1.76353 62.6458 0.842433 60.2555 0.369671 57.8208L0.860503 57.7255C0.62142 56.4942 0.5 55.252 0.5 54C0.5 52.748 0.621421 51.5058 0.860505 50.2745L0.369672 50.1792C0.842434 47.7444 1.76353 45.3542 3.10344 43.0191L3.53712 43.268C4.71562 41.2141 6.22774 39.1973 8.05636 37.2258L7.68977 36.8857C9.33437 35.1126 11.2275 33.3804 13.3543 31.6946L13.6649 32.0864C15.5599 30.5843 17.6441 29.1175 19.9075 27.6902L19.6408 27.2672C21.7221 25.9547 23.9519 24.6767 26.3221 23.4361L26.5539 23.879C28.7345 22.7377 31.0353 21.6276 33.4502 20.5513L33.2466 20.0946C35.5168 19.0827 37.8865 18.101 40.3502 17.1513L40.53 17.6178C42.8526 16.7225 45.2596 15.8555 47.7466 15.0186L47.5871 14.5447C49.9659 13.7441 52.4173 12.9711 54.9371 12.227L55.0787 12.7065C57.478 11.9981 59.9399 11.3158 62.461 10.6611L62.3353 10.1771C64.7726 9.54414 67.2648 8.93685 69.8089 8.35637L69.9201 8.84384C72.378 8.28302 74.8846 7.74723 77.4371 7.23746L77.3391 6.74715C79.8212 6.25145 82.3465 5.78036 84.9123 5.33479L84.9979 5.82742C87.4852 5.39549 90.0108 4.98757 92.5725 4.60449L92.4986 4.10999C95.0035 3.7354 97.5427 3.38455 100.114 3.05822L100.177 3.55424C102.69 3.23534 105.233 2.93988 107.805 2.66859L107.753 2.17134C110.278 1.90499 112.832 1.66191 115.41 1.44279L115.453 1.94099C117.982 1.72606 120.537 1.5342 123.114 1.36608L123.081 0.867139C125.62 0.701539 128.181 0.55894 130.762 0.439964L130.785 0.939434C133.326 0.822362 135.886 0.728189 138.464 0.65751L138.45 0.157697C140.997 0.0878858 143.561 0.0409677 146.142 0.0175133L146.147 0.517493C147.427 0.505854 148.712 0.5 150 0.5C151.288 0.5 152.573 0.505854 153.853 0.517493L153.858 0.0175134C156.439 0.0409678 159.003 0.0878859 161.55 0.157697L161.536 0.65751C164.114 0.728189 166.674 0.822362 169.215 0.939434L169.238 0.439965C171.819 0.558941 174.38 0.701539 176.919 0.867139L176.886 1.36608C179.463 1.5342 182.018 1.72606 184.547 1.94099L184.59 1.44279C187.168 1.66191 189.722 1.90499 192.247 2.17134L192.195 2.66859C194.767 2.93988 197.31 3.23534 199.823 3.55424L199.886 3.05822C202.457 3.38455 204.997 3.7354 207.501 4.10999L207.427 4.60449C209.989 4.98757 212.515 5.39549 215.002 5.82742L215.088 5.33479C217.654 5.78036 220.179 6.25145 222.661 6.74715L222.563 7.23746C225.115 7.74723 227.622 8.28302 230.08 8.84384L230.191 8.35637C232.735 8.93685 235.227 9.54414 237.665 10.1771L237.539 10.6611C240.06 11.3158 242.522 11.9981 244.921 12.7065L245.063 12.227C247.583 12.9711 250.034 13.7441 252.413 14.5447L252.253 15.0186C254.74 15.8555 257.147 16.7225 259.47 17.6178L259.65 17.1513C262.114 18.101 264.483 19.0827 266.753 20.0946L266.55 20.5513C268.965 21.6276 271.266 22.7377 273.446 23.8791L273.678 23.4361C276.048 24.6767 278.278 25.9547 280.359 27.2672L280.093 27.6902C282.356 29.1175 284.44 30.5843 286.335 32.0864L286.646 31.6946C288.772 33.3804 290.666 35.1126 292.31 36.8857L291.944 37.2258C293.772 39.1973 295.284 41.2141 296.463 43.268L296.897 43.0191Z" stroke="url(#paint0_linear)" stroke-dasharray="8 8"/>
<circle cx="149.5" cy="107.5" r="14.5" fill="#D0A25F" stroke="#DFDFDF" stroke-width="10"/>
<defs>
<linearGradient id="paint0_linear" x1="150" y1="0" x2="150" y2="108" gradientUnits="userSpaceOnUse">
<stop offset="0.365751" stop-opacity="0"/>
<stop offset="1" stop-opacity="0.94"/>
</linearGradient>
</defs>
</svg>
