<svg width="47" height="46" viewBox="0 0 47 46" fill="none" xmlns="http://www.w3.org/2000/svg">
<path d="M42.5938 7.1875H4.40625C3.59385 7.1875 2.9375 7.82988 2.9375 8.625V15.8125H44.0625V8.625C44.0625 7.82988 43.4062 7.1875 42.5938 7.1875ZM2.9375 37.375C2.9375 38.1701 3.59385 38.8125 4.40625 38.8125H42.5938C43.4062 38.8125 44.0625 38.1701 44.0625 37.375V19.7656H2.9375V37.375ZM29.5127 29.1094C29.5127 28.9117 29.6779 28.75 29.8799 28.75H37.4531C37.6551 28.75 37.8203 28.9117 37.8203 29.1094V32.3438C37.8203 32.5414 37.6551 32.7031 37.4531 32.7031H29.8799C29.6779 32.7031 29.5127 32.5414 29.5127 32.3438V29.1094Z" fill="#D0A25F"/>
</svg>
