<svg width="43" height="42" viewBox="0 0 43 42" fill="none" xmlns="http://www.w3.org/2000/svg">
<path d="M38.8134 13.8797C37.8713 11.6834 36.5006 9.68718 34.7779 8.00219C33.0604 6.31426 31.0201 4.97226 28.7731 4.05238C26.4711 3.10546 23.9978 2.62007 21.5 2.62504H21.416C18.8755 2.63734 16.4189 3.12953 14.1052 4.0975C11.8774 5.02681 9.85629 6.37119 8.15489 8.05551C6.44887 9.73671 5.09396 11.726 4.16563 13.9125C3.20197 16.1863 2.71368 18.6253 2.7295 21.0862C2.7421 23.9327 3.43917 26.7586 4.74092 29.2852V35.5196C4.74092 36.5614 5.60596 37.4063 6.66837 37.4063H13.0428C15.6416 38.6871 18.5094 39.3611 21.4202 39.375H21.5084C24.0195 39.375 26.4509 38.8993 28.7437 37.9682C30.9794 37.0593 33.012 35.7329 34.7275 34.0635C36.4576 32.386 37.8182 30.4254 38.7714 28.2393C39.7582 25.9752 40.2621 23.5676 40.2747 21.0821C40.2831 18.5842 39.7876 16.1602 38.8134 13.8797ZM13.1184 22.9688C12.0098 22.9688 11.1069 22.087 11.1069 21C11.1069 19.9131 12.0098 19.0313 13.1184 19.0313C14.227 19.0313 15.1298 19.9131 15.1298 21C15.1298 22.087 14.2312 22.9688 13.1184 22.9688ZM21.5 22.9688C20.3914 22.9688 19.4886 22.087 19.4886 21C19.4886 19.9131 20.3914 19.0313 21.5 19.0313C22.6086 19.0313 23.5114 19.9131 23.5114 21C23.5114 22.087 22.6086 22.9688 21.5 22.9688ZM29.8816 22.9688C28.773 22.9688 27.8702 22.087 27.8702 21C27.8702 19.9131 28.773 19.0313 29.8816 19.0313C30.9902 19.0313 31.8931 19.9131 31.8931 21C31.8931 22.087 30.9902 22.9688 29.8816 22.9688Z" fill="#D0A25F"/>
</svg>
