<svg width="52" height="43" viewBox="0 0 52 43" fill="none" xmlns="http://www.w3.org/2000/svg">
<path d="M38.9783 3.70679H4.33333C1.95 3.70679 0 5.31929 0 7.29012V39.5401L8.645 32.3735H38.9783C41.3617 32.3735 43.3117 30.761 43.3117 28.7901V7.29012C43.3117 5.31929 41.3617 3.70679 38.9783 3.70679ZM23.8117 25.2068H19.4783V21.6235H23.8117V25.2068ZM23.8117 16.2485C23.8117 17.2339 22.8367 18.0401 21.645 18.0401C20.4533 18.0401 19.4783 17.2339 19.4783 16.2485V12.6651C19.4783 11.6797 20.4533 10.8735 21.645 10.8735C22.8367 10.8735 23.8117 11.6797 23.8117 12.6651V16.2485Z" fill="#D0A25F"/>
</svg>
