<svg width="47" height="42" viewBox="0 0 47 42" fill="none" xmlns="http://www.w3.org/2000/svg">
<path d="M43.0833 2.625H3.91667C1.75434 2.625 0 4.38867 0 6.5625V35.4375C0 37.6113 1.75434 39.375 3.91667 39.375H43.0833C45.2457 39.375 47 37.6113 47 35.4375V6.5625C47 4.38867 45.2457 2.625 43.0833 2.625ZM14.3611 10.5C17.2415 10.5 19.5833 12.8543 19.5833 15.75C19.5833 18.6457 17.2415 21 14.3611 21C11.4807 21 9.13889 18.6457 9.13889 15.75C9.13889 12.8543 11.4807 10.5 14.3611 10.5ZM23.5 29.925C23.5 30.7945 22.684 31.5 21.6722 31.5H7.05C6.03819 31.5 5.22222 30.7945 5.22222 29.925V28.35C5.22222 25.7414 7.6783 23.625 10.7056 23.625H11.1135C12.1172 24.0434 13.2106 24.2812 14.3611 24.2812C15.5116 24.2812 16.6132 24.0434 17.6087 23.625H18.0167C21.0439 23.625 23.5 25.7414 23.5 28.35V29.925ZM41.7778 25.5938C41.7778 25.9547 41.484 26.25 41.125 26.25H29.375C29.016 26.25 28.7222 25.9547 28.7222 25.5938V24.2812C28.7222 23.9203 29.016 23.625 29.375 23.625H41.125C41.484 23.625 41.7778 23.9203 41.7778 24.2812V25.5938ZM41.7778 20.3438C41.7778 20.7047 41.484 21 41.125 21H29.375C29.016 21 28.7222 20.7047 28.7222 20.3438V19.0312C28.7222 18.6703 29.016 18.375 29.375 18.375H41.125C41.484 18.375 41.7778 18.6703 41.7778 19.0312V20.3438ZM41.7778 15.0938C41.7778 15.4547 41.484 15.75 41.125 15.75H29.375C29.016 15.75 28.7222 15.4547 28.7222 15.0938V13.7812C28.7222 13.4203 29.016 13.125 29.375 13.125H41.125C41.484 13.125 41.7778 13.4203 41.7778 13.7812V15.0938Z" fill="#D0A25F"/>
</svg>
