<svg width="143" height="143" viewBox="0 0 143 143" fill="none" xmlns="http://www.w3.org/2000/svg">
<path d="M18.9922 53.625H26.8125C27.427 53.625 27.9297 53.1223 27.9297 52.5078V27.9297H52.5078C53.1223 27.9297 53.625 27.427 53.625 26.8125V18.9922C53.625 18.3777 53.1223 17.875 52.5078 17.875H27.3711C22.1203 17.875 17.875 22.1203 17.875 27.3711V52.5078C17.875 53.1223 18.3777 53.625 18.9922 53.625ZM90.4922 27.9297H115.07V52.5078C115.07 53.1223 115.573 53.625 116.188 53.625H124.008C124.622 53.625 125.125 53.1223 125.125 52.5078V27.3711C125.125 22.1203 120.88 17.875 115.629 17.875H90.4922C89.8777 17.875 89.375 18.3777 89.375 18.9922V26.8125C89.375 27.427 89.8777 27.9297 90.4922 27.9297ZM52.5078 115.07H27.9297V90.4922C27.9297 89.8777 27.427 89.375 26.8125 89.375H18.9922C18.3777 89.375 17.875 89.8777 17.875 90.4922V115.629C17.875 120.88 22.1203 125.125 27.3711 125.125H52.5078C53.1223 125.125 53.625 124.622 53.625 124.008V116.188C53.625 115.573 53.1223 115.07 52.5078 115.07ZM124.008 89.375H116.188C115.573 89.375 115.07 89.8777 115.07 90.4922V115.07H90.4922C89.8777 115.07 89.375 115.573 89.375 116.188V124.008C89.375 124.622 89.8777 125.125 90.4922 125.125H115.629C120.88 125.125 125.125 120.88 125.125 115.629V90.4922C125.125 89.8777 124.622 89.375 124.008 89.375ZM126.242 66.4727H16.7578C16.1434 66.4727 15.6406 66.9754 15.6406 67.5898V75.4102C15.6406 76.0246 16.1434 76.5273 16.7578 76.5273H126.242C126.857 76.5273 127.359 76.0246 127.359 75.4102V67.5898C127.359 66.9754 126.857 66.4727 126.242 66.4727Z" fill="white"/>
</svg>
